<svg xmlns="http://www.w3.org/2000/svg" width="1440" height="900"><path d="M524,485L615,221L254,195Z" fill="#ffb542" stroke="#ffb542" stroke-width="1.51"/><path d="M615,221L347,37L254,195Z" fill="#fec351" stroke="#fec351" stroke-width="1.51"/><path d="M254,195L289,638L524,485Z" fill="#ffb03e" stroke="#ffb03e" stroke-width="1.51"/><path d="M615,221L561,-33L347,37Z" fill="#ffc256" stroke="#ffc256" stroke-width="1.51"/><path d="M524,485L871,225L615,221Z" fill="#ffa836" stroke="#ffa836" stroke-width="1.51"/><path d="M615,221L871,225L561,-33Z" fill="#ffb444" stroke="#ffb444" stroke-width="1.51"/><path d="M524,485L722,776L871,225Z" fill="#fd9729" stroke="#fd9729" stroke-width="1.51"/><path d="M289,638L722,776L524,485Z" fill="#f9982e" stroke="#f9982e" stroke-width="1.51"/><path d="M254,195L-152,325L289,638Z" fill="#ffbe58" stroke="#ffbe58" stroke-width="1.51"/><path d="M-238,80L-152,325L254,195Z" fill="#ffd372" stroke="#ffd372" stroke-width="1.51"/><path d="M347,37L-238,80L254,195Z" fill="#ffd36f" stroke="#ffd36f" stroke-width="1.51"/><path d="M561,-33L421,-352L347,37Z" fill="#ffcf6f" stroke="#ffcf6f" stroke-width="1.51"/><path d="M839,-235L421,-352L561,-33Z" fill="#ffca6e" stroke="#ffca6e" stroke-width="1.51"/><path d="M871,225L839,-235L561,-33Z" fill="#ffb855" stroke="#ffb855" stroke-width="1.51"/><path d="M266,-427L-238,80L347,37Z" fill="#ffde87" stroke="#ffde87" stroke-width="1.51"/><path d="M-152,325L-279,496L289,638Z" fill="#ffbd61" stroke="#ffbd61" stroke-width="1.51"/><path d="M289,638L320,1081L722,776Z" fill="#f08f2b" stroke="#f08f2b" stroke-width="1.51"/><path d="M-585,201L-279,496L-152,325Z" fill="#ffd07b" stroke="#ffd07b" stroke-width="1.51"/><path d="M421,-352L266,-427L347,37Z" fill="#ffda7f" stroke="#ffda7f" stroke-width="1.51"/><path d="M876,-341L266,-427L421,-352Z" fill="#ffd480" stroke="#ffd480" stroke-width="1.51"/><path d="M-306,925L320,1081L289,638Z" fill="#f09c47" stroke="#f09c47" stroke-width="1.51"/><path d="M839,-235L876,-341L421,-352Z" fill="#ffc772" stroke="#ffc772" stroke-width="1.51"/><path d="M1122,-336L876,-341L839,-235Z" fill="#ffba6a" stroke="#ffba6a" stroke-width="1.51"/><path d="M871,225L1162,-212L839,-235Z" fill="#fcb057" stroke="#fcb057" stroke-width="1.51"/><path d="M1368,716L1216,125L871,225Z" fill="#f38924" stroke="#f38924" stroke-width="1.51"/><path d="M-238,80L-585,201L-152,325Z" fill="#ffdb83" stroke="#ffdb83" stroke-width="1.51"/><path d="M-389,-494L-370,33L-238,80Z" fill="#ffeda8" stroke="#ffeda8" stroke-width="1.51"/><path d="M722,776L1368,716L871,225Z" fill="#f4811d" stroke="#f4811d" stroke-width="1.51"/><path d="M320,1081L710,1134L722,776Z" fill="#e67c1e" stroke="#e67c1e" stroke-width="1.51"/><path d="M1216,125L1162,-212L871,225Z" fill="#f8a345" stroke="#f8a345" stroke-width="1.51"/><path d="M710,1134L762,1142L722,776Z" fill="#e27215" stroke="#e27215" stroke-width="1.51"/><path d="M734,1343L762,1142L710,1134Z" fill="#d06815" stroke="#d06815" stroke-width="1.51"/><path d="M1162,-212L1122,-336L839,-235Z" fill="#fcb364" stroke="#fcb364" stroke-width="1.51"/><path d="M1628,-560L-249,-608L266,-427Z" fill="#ffd58b" stroke="#ffd58b" stroke-width="1.51"/><path d="M-279,496L-306,925L289,638Z" fill="#fbaf5d" stroke="#fbaf5d" stroke-width="1.51"/><path d="M-637,760L-306,925L-279,496Z" fill="#fdb46d" stroke="#fdb46d" stroke-width="1.51"/><path d="M320,1081L435,1285L710,1134Z" fill="#d57923" stroke="#d57923" stroke-width="1.51"/><path d="M102,1233L435,1285L320,1081Z" fill="#d38230" stroke="#d38230" stroke-width="1.51"/><path d="M-306,925L102,1233L320,1081Z" fill="#e19348" stroke="#e19348" stroke-width="1.51"/><path d="M762,1142L1233,899L722,776Z" fill="#e46c12" stroke="#e46c12" stroke-width="1.51"/><path d="M-370,33L-585,201L-238,80Z" fill="#ffe292" stroke="#ffe292" stroke-width="1.51"/><path d="M1233,899L1368,716L722,776Z" fill="#e66a11" stroke="#e66a11" stroke-width="1.51"/><path d="M1216,125L1614,4L1162,-212Z" fill="#ee9b48" stroke="#ee9b48" stroke-width="1.51"/><path d="M-145,1388L734,1343L435,1285Z" fill="#c47a2a" stroke="#c47a2a" stroke-width="1.51"/><path d="M435,1285L734,1343L710,1134Z" fill="#cc6c1b" stroke="#cc6c1b" stroke-width="1.51"/><path d="M762,1142L1242,1405L1233,899Z" fill="#cd570b" stroke="#cd570b" stroke-width="1.51"/><path d="M1368,716L1545,223L1216,125Z" fill="#e97e1f" stroke="#e97e1f" stroke-width="1.51"/><path d="M1162,-212L1628,-560L1122,-336Z" fill="#f3aa66" stroke="#f3aa66" stroke-width="1.51"/><path d="M266,-427L-249,-608L-238,80Z" fill="#ffeda7" stroke="#ffeda7" stroke-width="1.51"/><path d="M-370,33L-389,-494L-585,201Z" fill="#ffeeab" stroke="#ffeeab" stroke-width="1.51"/><path d="M1628,-560L266,-427L876,-341Z" fill="#ffbe76" stroke="#ffbe76" stroke-width="1.51"/><path d="M-249,-608L-389,-494L-238,80Z" fill="#fff4b6" stroke="#fff4b6" stroke-width="1.51"/><path d="M-306,925L-145,1388L102,1233Z" fill="#d89251" stroke="#d89251" stroke-width="1.51"/><path d="M-585,201L-637,760L-279,496Z" fill="#ffc77c" stroke="#ffc77c" stroke-width="1.51"/><path d="M1368,716L1782,531L1545,223Z" fill="#db6c14" stroke="#db6c14" stroke-width="1.51"/><path d="M1233,899L1441,919L1368,716Z" fill="#d95b08" stroke="#d95b08" stroke-width="1.51"/><path d="M1242,1405L1441,919L1233,899Z" fill="#ca4f05" stroke="#ca4f05" stroke-width="1.51"/><path d="M1545,223L1614,4L1216,125Z" fill="#e68d33" stroke="#e68d33" stroke-width="1.51"/><path d="M1888,292L1614,4L1545,223Z" fill="#d5812a" stroke="#d5812a" stroke-width="1.51"/><path d="M102,1233L-145,1388L435,1285Z" fill="#ca843e" stroke="#ca843e" stroke-width="1.51"/><path d="M-515,1307L-145,1388L-306,925Z" fill="#d7975c" stroke="#d7975c" stroke-width="1.51"/><path d="M-637,760L-677,1078L-306,925Z" fill="#f3a96f" stroke="#f3a96f" stroke-width="1.51"/><path d="M-585,201L-677,1078L-637,760Z" fill="#ffba7c" stroke="#ffba7c" stroke-width="1.51"/><path d="M-145,1388L1242,1405L734,1343Z" fill="#bf681c" stroke="#bf681c" stroke-width="1.51"/><path d="M734,1343L1242,1405L762,1142Z" fill="#c35a11" stroke="#c35a11" stroke-width="1.51"/><path d="M1881,598L1782,531L1906,926Z" fill="#bf530d" stroke="#bf530d" stroke-width="1.51"/><path d="M1441,919L1782,531L1368,716Z" fill="#d55b0b" stroke="#d55b0b" stroke-width="1.51"/><path d="M-677,1078L-515,1307L-306,925Z" fill="#e39e68" stroke="#e39e68" stroke-width="1.51"/><path d="M1782,531L1888,292L1545,223Z" fill="#d1711d" stroke="#d1711d" stroke-width="1.51"/><path d="M1122,-336L1628,-560L876,-341Z" fill="#f8af6c" stroke="#f8af6c" stroke-width="1.51"/><path d="M1614,4L1628,-560L1162,-212Z" fill="#ea9e5a" stroke="#ea9e5a" stroke-width="1.51"/><path d="M1815,-285L1628,-560L1614,4Z" fill="#da9659" stroke="#da9659" stroke-width="1.51"/><path d="M1906,926L1782,531L1441,919Z" fill="#c45009" stroke="#c45009" stroke-width="1.51"/><path d="M1782,531L1881,598L1888,292Z" fill="#c66315" stroke="#c66315" stroke-width="1.51"/><path d="M2036,-195L1815,-285L1614,4Z" fill="#cf8d4e" stroke="#cf8d4e" stroke-width="1.51"/><path d="M1618,1485L1906,926L1441,919Z" fill="#b13f03" stroke="#b13f03" stroke-width="1.51"/><path d="M1881,598L2036,-195L1888,292Z" fill="#c17425" stroke="#c17425" stroke-width="1.51"/><path d="M1242,1405L1618,1485L1441,919Z" fill="#b24003" stroke="#b24003" stroke-width="1.51"/><path d="M-145,1388L1618,1485L1242,1405Z" fill="#b55611" stroke="#b55611" stroke-width="1.51"/><path d="M1888,292L2036,-195L1614,4Z" fill="#ca833b" stroke="#ca833b" stroke-width="1.51"/><path d="M1815,-285L2036,-195L1628,-560Z" fill="#d0945d" stroke="#d0945d" stroke-width="1.51"/><path d="M2106,1471L2036,-195L1881,598Z" fill="#b55410" stroke="#b55410" stroke-width="1.51"/><path d="M1906,926L2106,1471L1881,598Z" fill="#a53c05" stroke="#a53c05" stroke-width="1.51"/><path d="M1618,1485L2106,1471L1906,926Z" fill="#903205" stroke="#903205" stroke-width="1.51"/></svg>